<?xml version="1.0" encoding="UTF-8" standalone="no"?>
<!DOCTYPE svg PUBLIC "-//W3C//DTD SVG 1.1//EN"
 "http://www.w3.org/Graphics/SVG/1.1/DTD/svg11.dtd">
<!-- Generated by graphviz version 2.47.3 (0)
 -->
<!-- Pages: 1 -->
<svg width="1070pt" height="1127pt"
 viewBox="0.00 0.00 1070.00 1127.00" xmlns="http://www.w3.org/2000/svg" xmlns:xlink="http://www.w3.org/1999/xlink">
<g id="graph0" class="graph" transform="scale(1 1) rotate(0) translate(4 1123)">
<polygon fill="white" stroke="transparent" points="-4,4 -4,-1123 1066,-1123 1066,4 -4,4"/>
<!-- 0 -->
<g id="node1" class="node">
<title>0</title>
<path fill="none" stroke="black" d="M119,-579.73C119,-581.53 92.33,-583 59.5,-583 26.67,-583 0,-581.53 0,-579.73 0,-579.73 0,-550.27 0,-550.27 0,-548.47 26.67,-547 59.5,-547 92.33,-547 119,-548.47 119,-550.27 119,-550.27 119,-579.73 119,-579.73"/>
<path fill="none" stroke="black" d="M119,-579.73C119,-577.92 92.33,-576.45 59.5,-576.45 26.67,-576.45 0,-577.92 0,-579.73"/>
<text text-anchor="middle" x="59.5" y="-561.3" font-family="Times,serif" font-size="14.00">extension root</text>
</g>
<!-- 1 -->
<g id="node2" class="node">
<title>1</title>
<ellipse fill="#c9a7c8" stroke="black" stroke-width="0" cx="386" cy="-685" rx="230.96" ry="18"/>
<text text-anchor="middle" x="386" y="-681.3" font-family="Times,serif" font-size="14.00">enum custom_types::generic_enum::SomeValue</text>
</g>
<!-- 0&#45;&gt;1 -->
<g id="edge1" class="edge">
<title>0&#45;&gt;1</title>
<path fill="none" stroke="gray" d="M119.25,-580.9C149.12,-580.9 179,-580.9 179,-580.9 179,-580.9 179,-666.83 179,-666.83"/>
<polygon fill="gray" stroke="gray" points="175.5,-666.83 179,-676.83 182.5,-666.83 175.5,-666.83"/>
</g>
<!-- 2 -->
<g id="node3" class="node">
<title>2</title>
<ellipse fill="#ae9bbd" stroke="black" stroke-width="0" cx="386" cy="-445" rx="184.67" ry="18"/>
<text text-anchor="middle" x="386" y="-441.3" font-family="Times,serif" font-size="14.00">type custom_types::complex::Animals</text>
</g>
<!-- 0&#45;&gt;2 -->
<g id="edge2" class="edge">
<title>0&#45;&gt;2</title>
<path fill="none" stroke="gray" d="M119.06,-549.62C177.53,-549.62 258,-549.62 258,-549.62 258,-549.62 258,-468.25 258,-468.25"/>
<polygon fill="gray" stroke="gray" points="261.5,-468.25 258,-458.25 254.5,-468.25 261.5,-468.25"/>
</g>
<!-- 3 -->
<g id="node4" class="node">
<title>3</title>
<ellipse fill="#ae9bbd" stroke="black" stroke-width="0" cx="386" cy="-100" rx="223.66" ry="18"/>
<text text-anchor="middle" x="386" y="-96.3" font-family="Times,serif" font-size="14.00">type custom_types::fixed_size::FixedF32Array</text>
</g>
<!-- 0&#45;&gt;3 -->
<g id="edge3" class="edge">
<title>0&#45;&gt;3</title>
<path fill="none" stroke="gray" d="M27,-546.77C27,-460.8 27,-100 27,-100 27,-100 152.21,-100 152.21,-100"/>
<polygon fill="gray" stroke="gray" points="152.21,-103.5 162.21,-100 152.21,-96.5 152.21,-103.5"/>
</g>
<!-- 4 -->
<g id="node5" class="node">
<title>4</title>
<ellipse fill="#ae9bbd" stroke="black" stroke-width="0" cx="386" cy="-993" rx="214.46" ry="18"/>
<text text-anchor="middle" x="386" y="-989.3" font-family="Times,serif" font-size="14.00">type custom_types::hstore_clone::RustStore</text>
</g>
<!-- 0&#45;&gt;4 -->
<g id="edge4" class="edge">
<title>0&#45;&gt;4</title>
<path fill="none" stroke="gray" d="M45,-583.12C45,-664.58 45,-993 45,-993 45,-993 161.49,-993 161.49,-993"/>
<polygon fill="gray" stroke="gray" points="161.49,-996.5 171.49,-993 161.49,-989.5 161.49,-996.5"/>
</g>
<!-- 5 -->
<g id="node6" class="node">
<title>5</title>
<polygon fill="#adc7c6" stroke="black" stroke-width="0" points="1003,-547 712,-547 712,-511 1003,-511 1003,-547"/>
<text text-anchor="middle" x="857.5" y="-525.3" font-family="Times,serif" font-size="14.00">fn custom_types::complex::add_animal</text>
</g>
<!-- 0&#45;&gt;5 -->
<g id="edge5" class="edge">
<title>0&#45;&gt;5</title>
<path fill="none" stroke="gray" d="M106,-547.42C106,-538.28 106,-529 106,-529 106,-529 701.71,-529 701.71,-529"/>
<polygon fill="gray" stroke="gray" points="701.71,-532.5 711.71,-529 701.71,-525.5 701.71,-532.5"/>
</g>
<!-- 8 -->
<g id="node9" class="node">
<title>8</title>
<polygon fill="#adc7c6" stroke="black" stroke-width="0" points="1000.5,-422 714.5,-422 714.5,-386 1000.5,-386 1000.5,-422"/>
<text text-anchor="middle" x="857.5" y="-400.3" font-family="Times,serif" font-size="14.00">fn custom_types::complex::animals_in</text>
</g>
<!-- 0&#45;&gt;8 -->
<g id="edge6" class="edge">
<title>0&#45;&gt;8</title>
<path fill="none" stroke="gray" d="M93,-546.84C93,-504.74 93,-404 93,-404 93,-404 704.15,-404 704.15,-404"/>
<polygon fill="gray" stroke="gray" points="704.15,-407.5 714.15,-404 704.15,-400.5 704.15,-407.5"/>
</g>
<!-- 10 -->
<g id="node11" class="node">
<title>10</title>
<polygon fill="#adc7c6" stroke="black" stroke-width="0" points="1005.5,-368 709.5,-368 709.5,-332 1005.5,-332 1005.5,-368"/>
<text text-anchor="middle" x="857.5" y="-346.3" font-family="Times,serif" font-size="14.00">fn custom_types::complex::animals_out</text>
</g>
<!-- 0&#45;&gt;10 -->
<g id="edge7" class="edge">
<title>0&#45;&gt;10</title>
<path fill="none" stroke="gray" d="M80,-546.89C80,-494.05 80,-343.75 80,-343.75 80,-343.75 699.43,-343.75 699.43,-343.75"/>
<polygon fill="gray" stroke="gray" points="699.43,-347.25 709.43,-343.75 699.43,-340.25 699.43,-347.25"/>
</g>
<!-- 11 -->
<g id="node12" class="node">
<title>11</title>
<polygon fill="#adc7c6" stroke="black" stroke-width="0" points="1032,-144 683,-144 683,-108 1032,-108 1032,-144"/>
<text text-anchor="middle" x="857.5" y="-122.3" font-family="Times,serif" font-size="14.00">fn custom_types::fixed_size::fixedf32array_add</text>
</g>
<!-- 0&#45;&gt;11 -->
<g id="edge8" class="edge">
<title>0&#45;&gt;11</title>
<path fill="none" stroke="gray" d="M40,-546.9C40,-464.77 40,-131 40,-131 40,-131 672.88,-131 672.88,-131"/>
<polygon fill="gray" stroke="gray" points="672.88,-134.5 682.88,-131 672.88,-127.5 672.88,-134.5"/>
</g>
<!-- 12 -->
<g id="node13" class="node">
<title>12</title>
<polygon fill="#adc7c6" stroke="black" stroke-width="0" points="1049,-36 666,-36 666,0 1049,0 1049,-36"/>
<text text-anchor="middle" x="857.5" y="-14.3" font-family="Times,serif" font-size="14.00">fn custom_types::fixed_size::fixedf32array_distance</text>
</g>
<!-- 0&#45;&gt;12 -->
<g id="edge9" class="edge">
<title>0&#45;&gt;12</title>
<path fill="none" stroke="gray" d="M119.18,-552.25C274.45,-552.25 679,-552.25 679,-552.25 679,-552.25 679,-46.08 679,-46.08"/>
<polygon fill="gray" stroke="gray" points="682.5,-46.08 679,-36.08 675.5,-46.08 682.5,-46.08"/>
</g>
<!-- 14 -->
<g id="node15" class="node">
<title>14</title>
<polygon fill="#adc7c6" stroke="black" stroke-width="0" points="1025.5,-202 689.5,-202 689.5,-166 1025.5,-166 1025.5,-202"/>
<text text-anchor="middle" x="857.5" y="-180.3" font-family="Times,serif" font-size="14.00">fn custom_types::fixed_size::fixedf32array_in</text>
</g>
<!-- 0&#45;&gt;14 -->
<g id="edge10" class="edge">
<title>0&#45;&gt;14</title>
<path fill="none" stroke="gray" d="M53,-546.88C53,-471.16 53,-184 53,-184 53,-184 679.34,-184 679.34,-184"/>
<polygon fill="gray" stroke="gray" points="679.34,-187.5 689.34,-184 679.34,-180.5 679.34,-187.5"/>
</g>
<!-- 15 -->
<g id="node16" class="node">
<title>15</title>
<polygon fill="#adc7c6" stroke="black" stroke-width="0" points="1030.5,-90 684.5,-90 684.5,-54 1030.5,-54 1030.5,-90"/>
<text text-anchor="middle" x="857.5" y="-68.3" font-family="Times,serif" font-size="14.00">fn custom_types::fixed_size::fixedf32array_out</text>
</g>
<!-- 0&#45;&gt;15 -->
<g id="edge11" class="edge">
<title>0&#45;&gt;15</title>
<path fill="none" stroke="gray" d="M14,-547.44C14,-458.65 14,-63.33 14,-63.33 14,-63.33 674.26,-63.33 674.26,-63.33"/>
<polygon fill="gray" stroke="gray" points="674.26,-66.83 684.26,-63.33 674.26,-59.83 674.26,-66.83"/>
</g>
<!-- 16 -->
<g id="node17" class="node">
<title>16</title>
<polygon fill="#adc7c6" stroke="black" stroke-width="0" points="1062,-703 653,-703 653,-667 1062,-667 1062,-703"/>
<text text-anchor="middle" x="857.5" y="-681.3" font-family="Times,serif" font-size="14.00">fn custom_types::generic_enum::get_some_value_name</text>
</g>
<!-- 0&#45;&gt;16 -->
<g id="edge12" class="edge">
<title>0&#45;&gt;16</title>
<path fill="none" stroke="gray" d="M119.15,-576.7C270.22,-576.7 656,-576.7 656,-576.7 656,-576.7 656,-656.63 656,-656.63"/>
<polygon fill="gray" stroke="gray" points="652.5,-656.63 656,-666.63 659.5,-656.63 652.5,-656.63"/>
</g>
<!-- 17 -->
<g id="node18" class="node">
<title>17</title>
<polygon fill="#adc7c6" stroke="black" stroke-width="0" points="1017,-482 698,-482 698,-446 1017,-446 1017,-482"/>
<text text-anchor="middle" x="857.5" y="-460.3" font-family="Times,serif" font-size="14.00">fn custom_types::complex::known_animals</text>
</g>
<!-- 0&#45;&gt;17 -->
<g id="edge13" class="edge">
<title>0&#45;&gt;17</title>
<path fill="none" stroke="gray" d="M119.17,-554.88C278.7,-554.88 703,-554.88 703,-554.88 703,-554.88 703,-492.39 703,-492.39"/>
<polygon fill="gray" stroke="gray" points="706.5,-492.39 703,-482.39 699.5,-492.39 706.5,-492.39"/>
</g>
<!-- 18 -->
<g id="node19" class="node">
<title>18</title>
<polygon fill="#adc7c6" stroke="black" stroke-width="0" points="1013,-292 702,-292 702,-256 1013,-256 1013,-292"/>
<text text-anchor="middle" x="857.5" y="-270.3" font-family="Times,serif" font-size="14.00">fn custom_types::complex::make_animals</text>
</g>
<!-- 0&#45;&gt;18 -->
<g id="edge14" class="edge">
<title>0&#45;&gt;18</title>
<path fill="none" stroke="gray" d="M67,-546.83C67,-483.23 67,-274.5 67,-274.5 67,-274.5 691.79,-274.5 691.79,-274.5"/>
<polygon fill="gray" stroke="gray" points="691.79,-278 701.79,-274.5 691.79,-271 691.79,-278"/>
</g>
<!-- 21 -->
<g id="node22" class="node">
<title>21</title>
<polygon fill="#adc7c6" stroke="black" stroke-width="0" points="999.5,-957 715.5,-957 715.5,-921 999.5,-921 999.5,-957"/>
<text text-anchor="middle" x="857.5" y="-935.3" font-family="Times,serif" font-size="14.00">fn custom_types::hstore_clone::rstore</text>
</g>
<!-- 0&#45;&gt;21 -->
<g id="edge15" class="edge">
<title>0&#45;&gt;21</title>
<path fill="none" stroke="gray" d="M60,-583.21C60,-658.64 60,-942.6 60,-942.6 60,-942.6 705.38,-942.6 705.38,-942.6"/>
<polygon fill="gray" stroke="gray" points="705.38,-946.1 715.38,-942.6 705.38,-939.1 705.38,-946.1"/>
</g>
<!-- 22 -->
<g id="node23" class="node">
<title>22</title>
<polygon fill="#adc7c6" stroke="black" stroke-width="0" points="1014.5,-849 700.5,-849 700.5,-813 1014.5,-813 1014.5,-849"/>
<text text-anchor="middle" x="857.5" y="-827.3" font-family="Times,serif" font-size="14.00">fn custom_types::hstore_clone::rstore_get</text>
</g>
<!-- 0&#45;&gt;22 -->
<g id="edge16" class="edge">
<title>0&#45;&gt;22</title>
<path fill="none" stroke="gray" d="M90,-583.04C90,-642.32 90,-827.4 90,-827.4 90,-827.4 690.33,-827.4 690.33,-827.4"/>
<polygon fill="gray" stroke="gray" points="690.33,-830.9 700.33,-827.4 690.33,-823.9 690.33,-830.9"/>
</g>
<!-- 24 -->
<g id="node25" class="node">
<title>24</title>
<polygon fill="#adc7c6" stroke="black" stroke-width="0" points="1015,-1011 700,-1011 700,-975 1015,-975 1015,-1011"/>
<text text-anchor="middle" x="857.5" y="-989.3" font-family="Times,serif" font-size="14.00">fn custom_types::hstore_clone::rstore_put</text>
</g>
<!-- 0&#45;&gt;24 -->
<g id="edge17" class="edge">
<title>0&#45;&gt;24</title>
<path fill="none" stroke="gray" d="M119.05,-578.8C264.5,-578.8 626,-578.8 626,-578.8 626,-578.8 626,-981 626,-981 626,-981 689.88,-981 689.88,-981"/>
<polygon fill="gray" stroke="gray" points="689.88,-984.5 699.88,-981 689.88,-977.5 689.88,-984.5"/>
</g>
<!-- 25 -->
<g id="node26" class="node">
<title>25</title>
<polygon fill="#adc7c6" stroke="black" stroke-width="0" points="1029.5,-1119 685.5,-1119 685.5,-1083 1029.5,-1083 1029.5,-1119"/>
<text text-anchor="middle" x="857.5" y="-1097.3" font-family="Times,serif" font-size="14.00">fn custom_types::hstore_clone::rstore_remove</text>
</g>
<!-- 0&#45;&gt;25 -->
<g id="edge18" class="edge">
<title>0&#45;&gt;25</title>
<path fill="none" stroke="gray" d="M15,-582.57C15,-676.17 15,-1111.8 15,-1111.8 15,-1111.8 675.48,-1111.8 675.48,-1111.8"/>
<polygon fill="gray" stroke="gray" points="675.48,-1115.3 685.48,-1111.8 675.48,-1108.3 675.48,-1115.3"/>
</g>
<!-- 26 -->
<g id="node27" class="node">
<title>26</title>
<polygon fill="#adc7c6" stroke="black" stroke-width="0" points="1017,-783 698,-783 698,-747 1017,-747 1017,-783"/>
<text text-anchor="middle" x="857.5" y="-761.3" font-family="Times,serif" font-size="14.00">fn custom_types::hstore_clone::rstore_size</text>
</g>
<!-- 0&#45;&gt;26 -->
<g id="edge19" class="edge">
<title>0&#45;&gt;26</title>
<path fill="none" stroke="gray" d="M105,-582.4C105,-631.06 105,-765 105,-765 105,-765 687.91,-765 687.91,-765"/>
<polygon fill="gray" stroke="gray" points="687.91,-768.5 697.91,-765 687.91,-761.5 687.91,-768.5"/>
</g>
<!-- 28 -->
<g id="node29" class="node">
<title>28</title>
<polygon fill="#adc7c6" stroke="black" stroke-width="0" points="1021,-903 694,-903 694,-867 1021,-867 1021,-903"/>
<text text-anchor="middle" x="857.5" y="-881.3" font-family="Times,serif" font-size="14.00">fn custom_types::hstore_clone::rstore_table</text>
</g>
<!-- 0&#45;&gt;28 -->
<g id="edge20" class="edge">
<title>0&#45;&gt;28</title>
<path fill="none" stroke="gray" d="M75,-583.24C75,-650.25 75,-879 75,-879 75,-879 683.94,-879 683.94,-879"/>
<polygon fill="gray" stroke="gray" points="683.94,-882.5 693.94,-879 683.94,-875.5 683.94,-882.5"/>
</g>
<!-- 29 -->
<g id="node30" class="node">
<title>29</title>
<polygon fill="#adc7c6" stroke="black" stroke-width="0" points="1021,-619 694,-619 694,-583 1021,-583 1021,-619"/>
<text text-anchor="middle" x="857.5" y="-597.3" font-family="Times,serif" font-size="14.00">fn custom_types::hstore_clone::ruststore_in</text>
</g>
<!-- 0&#45;&gt;29 -->
<g id="edge21" class="edge">
<title>0&#45;&gt;29</title>
<path fill="none" stroke="gray" d="M119.06,-574.6C279.37,-574.6 708,-574.6 708,-574.6 708,-574.6 708,-575.44 708,-575.44"/>
<polygon fill="gray" stroke="gray" points="704.5,-572.95 708,-582.95 711.5,-572.95 704.5,-572.95"/>
</g>
<!-- 30 -->
<g id="node31" class="node">
<title>30</title>
<polygon fill="#adc7c6" stroke="black" stroke-width="0" points="1026,-1065 689,-1065 689,-1029 1026,-1029 1026,-1065"/>
<text text-anchor="middle" x="857.5" y="-1043.3" font-family="Times,serif" font-size="14.00">fn custom_types::hstore_clone::ruststore_out</text>
</g>
<!-- 0&#45;&gt;30 -->
<g id="edge22" class="edge">
<title>0&#45;&gt;30</title>
<path fill="none" stroke="gray" d="M30,-583.06C30,-671.64 30,-1056 30,-1056 30,-1056 678.55,-1056 678.55,-1056"/>
<polygon fill="gray" stroke="gray" points="678.55,-1059.5 688.55,-1056 678.55,-1052.5 678.55,-1059.5"/>
</g>
<!-- 1&#45;&gt;16 -->
<g id="edge27" class="edge">
<title>1&#45;&gt;16</title>
<path fill="none" stroke="black" d="M616.92,-685C616.92,-685 642.89,-685 642.89,-685"/>
<polygon fill="black" stroke="black" points="642.89,-688.5 652.89,-685 642.89,-681.5 642.89,-688.5"/>
</g>
<!-- 2&#45;&gt;5 -->
<g id="edge53" class="edge">
<title>2&#45;&gt;5</title>
<path fill="none" stroke="black" d="M496,-459.67C496,-482.27 496,-523 496,-523 496,-523 701.77,-523 701.77,-523"/>
<polygon fill="black" stroke="black" points="701.77,-526.5 711.77,-523 701.77,-519.5 701.77,-526.5"/>
</g>
<!-- 2&#45;&gt;5 -->
<g id="edge56" class="edge">
<title>2&#45;&gt;5</title>
<path fill="none" stroke="black" d="M534,-465.94C534,-465.94 534,-517 534,-517 534,-517 625.97,-517 711.84,-517"/>
<polygon fill="black" stroke="black" points="537.5,-465.94 534,-455.94 530.5,-465.94 537.5,-465.94"/>
</g>
<!-- 2&#45;&gt;8 -->
<g id="edge58" class="edge">
<title>2&#45;&gt;8</title>
<path fill="none" stroke="black" d="M554,-427.25C554,-427.25 554,-413 554,-413 554,-413 635.61,-413 714.19,-413"/>
<polygon fill="black" stroke="black" points="550.5,-427.25 554,-437.25 557.5,-427.25 550.5,-427.25"/>
</g>
<!-- 2&#45;&gt;10 -->
<g id="edge49" class="edge">
<title>2&#45;&gt;10</title>
<path fill="none" stroke="black" d="M537,-434.33C537,-412.75 537,-365.92 537,-365.92 537,-365.92 699.45,-365.92 699.45,-365.92"/>
<polygon fill="black" stroke="black" points="699.45,-369.42 709.45,-365.92 699.45,-362.42 699.45,-369.42"/>
</g>
<!-- 2&#45;&gt;17 -->
<g id="edge26" class="edge">
<title>2&#45;&gt;17</title>
<path fill="none" stroke="black" d="M553,-454.5C553,-454.5 697.96,-454.5 697.96,-454.5"/>
<polygon fill="black" stroke="black" points="553,-451 543,-454.5 553,-458 553,-451"/>
</g>
<!-- 2&#45;&gt;18 -->
<g id="edge31" class="edge">
<title>2&#45;&gt;18</title>
<path fill="none" stroke="black" d="M558.81,-436.5C558.81,-436.5 706,-436.5 706,-436.5 706,-436.5 706,-334.32 706,-292.01"/>
<polygon fill="black" stroke="black" points="558.81,-433 548.81,-436.5 558.81,-440 558.81,-433"/>
</g>
<!-- 3&#45;&gt;11 -->
<g id="edge37" class="edge">
<title>3&#45;&gt;11</title>
<path fill="none" stroke="black" d="M567.62,-110.5C567.62,-110.5 672.95,-110.5 672.95,-110.5"/>
<polygon fill="black" stroke="black" points="672.95,-114 682.95,-110.5 672.95,-107 672.95,-114"/>
</g>
<!-- 3&#45;&gt;11 -->
<g id="edge38" class="edge">
<title>3&#45;&gt;11</title>
<path fill="none" stroke="black" d="M540.71,-113C540.71,-113 672.98,-113 672.98,-113"/>
<polygon fill="black" stroke="black" points="672.98,-116.5 682.98,-113 672.98,-109.5 672.98,-116.5"/>
</g>
<!-- 3&#45;&gt;11 -->
<g id="edge39" class="edge">
<title>3&#45;&gt;11</title>
<path fill="none" stroke="black" d="M509.84,-115.5C509.84,-115.5 682.55,-115.5 682.55,-115.5"/>
<polygon fill="black" stroke="black" points="509.84,-112 499.84,-115.5 509.84,-119 509.84,-112"/>
</g>
<!-- 3&#45;&gt;12 -->
<g id="edge63" class="edge">
<title>3&#45;&gt;12</title>
<path fill="none" stroke="black" d="M488.49,-84C570.2,-84 671,-84 671,-84 671,-84 671,-46.03 671,-46.03"/>
<polygon fill="black" stroke="black" points="674.5,-46.03 671,-36.03 667.5,-46.03 674.5,-46.03"/>
</g>
<!-- 3&#45;&gt;12 -->
<g id="edge64" class="edge">
<title>3&#45;&gt;12</title>
<path fill="none" stroke="black" d="M526.69,-86C600.19,-86 675,-86 675,-86 675,-86 675,-46.22 675,-46.22"/>
<polygon fill="black" stroke="black" points="678.5,-46.22 675,-36.22 671.5,-46.22 678.5,-46.22"/>
</g>
<!-- 3&#45;&gt;14 -->
<g id="edge41" class="edge">
<title>3&#45;&gt;14</title>
<path fill="none" stroke="black" d="M585,-118.31C585,-118.31 585,-175 585,-175 585,-175 633.27,-175 689.19,-175"/>
<polygon fill="black" stroke="black" points="588.5,-118.31 585,-108.31 581.5,-118.31 588.5,-118.31"/>
</g>
<!-- 3&#45;&gt;15 -->
<g id="edge35" class="edge">
<title>3&#45;&gt;15</title>
<path fill="none" stroke="black" d="M552.9,-88C552.9,-88 674.45,-88 674.45,-88"/>
<polygon fill="black" stroke="black" points="674.45,-91.5 684.45,-88 674.45,-84.5 674.45,-91.5"/>
</g>
<!-- 4&#45;&gt;21 -->
<g id="edge68" class="edge">
<title>4&#45;&gt;21</title>
<path fill="none" stroke="black" d="M567,-972.98C567,-972.98 567,-949.8 567,-949.8 567,-949.8 641.62,-949.8 715.23,-949.8"/>
<polygon fill="black" stroke="black" points="563.5,-972.98 567,-982.98 570.5,-972.98 563.5,-972.98"/>
</g>
<!-- 4&#45;&gt;22 -->
<g id="edge32" class="edge">
<title>4&#45;&gt;22</title>
<path fill="none" stroke="black" d="M534,-979.85C534,-943.06 534,-841.8 534,-841.8 534,-841.8 690.49,-841.8 690.49,-841.8"/>
<polygon fill="black" stroke="black" points="690.49,-845.3 700.49,-841.8 690.49,-838.3 690.49,-845.3"/>
</g>
<!-- 4&#45;&gt;24 -->
<g id="edge59" class="edge">
<title>4&#45;&gt;24</title>
<path fill="none" stroke="black" d="M588.35,-999C588.35,-999 689.95,-999 689.95,-999"/>
<polygon fill="black" stroke="black" points="689.95,-1002.5 699.95,-999 689.95,-995.5 689.95,-1002.5"/>
</g>
<!-- 4&#45;&gt;24 -->
<g id="edge62" class="edge">
<title>4&#45;&gt;24</title>
<path fill="none" stroke="black" d="M555.96,-1005C555.96,-1005 699.85,-1005 699.85,-1005"/>
<polygon fill="black" stroke="black" points="555.96,-1001.5 545.96,-1005 555.96,-1008.5 555.96,-1001.5"/>
</g>
<!-- 4&#45;&gt;25 -->
<g id="edge46" class="edge">
<title>4&#45;&gt;25</title>
<path fill="none" stroke="black" d="M279,-1008.99C279,-1039.85 279,-1104.6 279,-1104.6 279,-1104.6 675.5,-1104.6 675.5,-1104.6"/>
<polygon fill="black" stroke="black" points="675.5,-1108.1 685.5,-1104.6 675.5,-1101.1 675.5,-1108.1"/>
</g>
<!-- 4&#45;&gt;25 -->
<g id="edge48" class="edge">
<title>4&#45;&gt;25</title>
<path fill="none" stroke="black" d="M386,-1021.19C386,-1021.19 386,-1097.4 386,-1097.4 386,-1097.4 550.59,-1097.4 685.28,-1097.4"/>
<polygon fill="black" stroke="black" points="389.5,-1021.19 386,-1011.19 382.5,-1021.19 389.5,-1021.19"/>
</g>
<!-- 4&#45;&gt;26 -->
<g id="edge42" class="edge">
<title>4&#45;&gt;26</title>
<path fill="none" stroke="black" d="M588.37,-987C599.35,-987 606,-987 606,-987 606,-987 606,-774 606,-774 606,-774 687.86,-774 687.86,-774"/>
<polygon fill="black" stroke="black" points="687.86,-777.5 697.86,-774 687.86,-770.5 687.86,-777.5"/>
</g>
<!-- 4&#45;&gt;28 -->
<g id="edge23" class="edge">
<title>4&#45;&gt;28</title>
<path fill="none" stroke="black" d="M550,-981.3C550,-954.51 550,-891 550,-891 550,-891 683.85,-891 683.85,-891"/>
<polygon fill="black" stroke="black" points="683.85,-894.5 693.85,-891 683.85,-887.5 683.85,-894.5"/>
</g>
<!-- 4&#45;&gt;29 -->
<g id="edge45" class="edge">
<title>4&#45;&gt;29</title>
<path fill="none" stroke="black" d="M610.53,-993C610.53,-993 644,-993 644,-993 644,-993 644,-607 644,-607 644,-607 664.98,-607 693.79,-607"/>
<polygon fill="black" stroke="black" points="610.53,-989.5 600.53,-993 610.53,-996.5 610.53,-989.5"/>
</g>
<!-- 4&#45;&gt;30 -->
<g id="edge51" class="edge">
<title>4&#45;&gt;30</title>
<path fill="none" stroke="black" d="M494,-1008.74C494,-1021.72 494,-1038 494,-1038 494,-1038 678.79,-1038 678.79,-1038"/>
<polygon fill="black" stroke="black" points="678.79,-1041.5 688.79,-1038 678.79,-1034.5 678.79,-1041.5"/>
</g>
<!-- 6 -->
<g id="node7" class="node">
<title>6</title>
<text text-anchor="middle" x="386" y="-907.3" font-family="Times,serif" font-size="14.00">preexisting type alloc::string::String</text>
</g>
<!-- 6&#45;&gt;5 -->
<g id="edge54" class="edge">
<title>6&#45;&gt;5</title>
<path fill="none" stroke="black" d="M516.7,-905.38C576.82,-905.38 635,-905.38 635,-905.38 635,-905.38 635,-541 635,-541 635,-541 701.88,-541 701.88,-541"/>
<polygon fill="black" stroke="black" points="701.88,-544.5 711.88,-541 701.88,-537.5 701.88,-544.5"/>
</g>
<!-- 6&#45;&gt;16 -->
<g id="edge28" class="edge">
<title>6&#45;&gt;16</title>
<path fill="none" stroke="black" d="M526.78,-907.25C526.78,-907.25 670,-907.25 670,-907.25 670,-907.25 670,-756.27 670,-703.19"/>
<polygon fill="black" stroke="black" points="526.78,-903.75 516.78,-907.25 526.78,-910.75 526.78,-903.75"/>
</g>
<!-- 6&#45;&gt;21 -->
<g id="edge66" class="edge">
<title>6&#45;&gt;21</title>
<path fill="none" stroke="black" d="M343,-918.72C343,-925.87 343,-935.4 343,-935.4 343,-935.4 705.21,-935.4 705.21,-935.4"/>
<polygon fill="black" stroke="black" points="705.21,-938.9 715.21,-935.4 705.21,-931.9 705.21,-938.9"/>
</g>
<!-- 6&#45;&gt;21 -->
<g id="edge67" class="edge">
<title>6&#45;&gt;21</title>
<path fill="none" stroke="black" d="M430,-918.79C430,-923.35 430,-928.2 430,-928.2 430,-928.2 705.45,-928.2 705.45,-928.2"/>
<polygon fill="black" stroke="black" points="705.45,-931.7 715.45,-928.2 705.45,-924.7 705.45,-931.7"/>
</g>
<!-- 6&#45;&gt;22 -->
<g id="edge33" class="edge">
<title>6&#45;&gt;22</title>
<path fill="none" stroke="black" d="M386,-903.4C386,-884.07 386,-834.6 386,-834.6 386,-834.6 690.5,-834.6 690.5,-834.6"/>
<polygon fill="black" stroke="black" points="690.5,-838.1 700.5,-834.6 690.5,-831.1 690.5,-838.1"/>
</g>
<!-- 6&#45;&gt;24 -->
<g id="edge60" class="edge">
<title>6&#45;&gt;24</title>
<path fill="none" stroke="black" d="M516.72,-914.75C604.43,-914.75 704,-914.75 704,-914.75 704,-914.75 704,-964.85 704,-964.85"/>
<polygon fill="black" stroke="black" points="700.5,-964.85 704,-974.85 707.5,-964.85 700.5,-964.85"/>
</g>
<!-- 6&#45;&gt;24 -->
<g id="edge61" class="edge">
<title>6&#45;&gt;24</title>
<path fill="none" stroke="black" d="M516.56,-912.88C605.43,-912.88 707,-912.88 707,-912.88 707,-912.88 707,-964.82 707,-964.82"/>
<polygon fill="black" stroke="black" points="703.5,-964.82 707,-974.82 710.5,-964.82 703.5,-964.82"/>
</g>
<!-- 6&#45;&gt;25 -->
<g id="edge47" class="edge">
<title>6&#45;&gt;25</title>
<path fill="none" stroke="black" d="M516.81,-916.62C566.79,-916.62 612,-916.62 612,-916.62 612,-916.62 612,-1090.2 612,-1090.2 612,-1090.2 675.33,-1090.2 675.33,-1090.2"/>
<polygon fill="black" stroke="black" points="675.33,-1093.7 685.33,-1090.2 675.33,-1086.7 675.33,-1093.7"/>
</g>
<!-- 6&#45;&gt;28 -->
<g id="edge24" class="edge">
<title>6&#45;&gt;28</title>
<path fill="none" stroke="black" d="M526.85,-909.12C526.85,-909.12 710,-909.12 710,-909.12 710,-909.12 710,-906.53 710,-903.04"/>
<polygon fill="black" stroke="black" points="526.85,-905.63 516.85,-909.12 526.85,-912.63 526.85,-905.63"/>
</g>
<!-- 6&#45;&gt;28 -->
<g id="edge25" class="edge">
<title>6&#45;&gt;28</title>
<path fill="none" stroke="black" d="M526.65,-911C526.65,-911 713,-911 713,-911 713,-911 713,-907.49 713,-903.06"/>
<polygon fill="black" stroke="black" points="526.65,-907.5 516.65,-911 526.65,-914.5 526.65,-907.5"/>
</g>
<!-- 7 -->
<g id="node8" class="node">
<title>7</title>
<text text-anchor="middle" x="386" y="-561.3" font-family="Times,serif" font-size="14.00">preexisting type i32</text>
</g>
<!-- 7&#45;&gt;5 -->
<g id="edge55" class="edge">
<title>7&#45;&gt;5</title>
<path fill="none" stroke="black" d="M386,-557.43C386,-548.54 386,-535 386,-535 386,-535 701.87,-535 701.87,-535"/>
<polygon fill="black" stroke="black" points="701.87,-538.5 711.87,-535 701.87,-531.5 701.87,-538.5"/>
</g>
<!-- 9 -->
<g id="node10" class="node">
<title>9</title>
<text text-anchor="middle" x="386" y="-359.3" font-family="Times,serif" font-size="14.00">preexisting type &amp;std::ffi::c_str::CStr</text>
</g>
<!-- 9&#45;&gt;8 -->
<g id="edge57" class="edge">
<title>9&#45;&gt;8</title>
<path fill="none" stroke="black" d="M386,-370.75C386,-380.22 386,-395 386,-395 386,-395 704.43,-395 704.43,-395"/>
<polygon fill="black" stroke="black" points="704.43,-398.5 714.43,-395 704.43,-391.5 704.43,-398.5"/>
</g>
<!-- 9&#45;&gt;10 -->
<g id="edge50" class="edge">
<title>9&#45;&gt;10</title>
<path fill="none" stroke="black" d="M529.22,-361.75C529.22,-361.75 709.28,-361.75 709.28,-361.75"/>
<polygon fill="black" stroke="black" points="529.22,-358.25 519.22,-361.75 529.22,-365.25 529.22,-358.25"/>
</g>
<!-- 9&#45;&gt;14 -->
<g id="edge40" class="edge">
<title>9&#45;&gt;14</title>
<path fill="none" stroke="black" d="M519.3,-359.67C590.65,-359.67 664,-359.67 664,-359.67 664,-359.67 664,-193 664,-193 664,-193 679.3,-193 679.3,-193"/>
<polygon fill="black" stroke="black" points="679.3,-196.5 689.3,-193 679.3,-189.5 679.3,-196.5"/>
</g>
<!-- 9&#45;&gt;15 -->
<g id="edge36" class="edge">
<title>9&#45;&gt;15</title>
<path fill="none" stroke="black" d="M529.3,-357.58C529.3,-357.58 659,-357.58 659,-357.58 659,-357.58 659,-72.67 659,-72.67 659,-72.67 668.84,-72.67 684.14,-72.67"/>
<polygon fill="black" stroke="black" points="529.3,-354.08 519.3,-357.58 529.3,-361.08 529.3,-354.08"/>
</g>
<!-- 9&#45;&gt;29 -->
<g id="edge44" class="edge">
<title>9&#45;&gt;29</title>
<path fill="none" stroke="black" d="M519.07,-363.83C589.26,-363.83 661,-363.83 661,-363.83 661,-363.83 661,-595 661,-595 661,-595 683.89,-595 683.89,-595"/>
<polygon fill="black" stroke="black" points="683.89,-598.5 693.89,-595 683.89,-591.5 683.89,-598.5"/>
</g>
<!-- 9&#45;&gt;30 -->
<g id="edge52" class="edge">
<title>9&#45;&gt;30</title>
<path fill="none" stroke="black" d="M242.75,-363C242.75,-363 137,-363 137,-363 137,-363 137,-1047 137,-1047 137,-1047 475.62,-1047 688.57,-1047"/>
<polygon fill="black" stroke="black" points="242.75,-366.5 252.75,-363 242.75,-359.5 242.75,-366.5"/>
</g>
<!-- 13 -->
<g id="node14" class="node">
<title>13</title>
<text text-anchor="middle" x="386" y="-14.3" font-family="Times,serif" font-size="14.00">preexisting type f64</text>
</g>
<!-- 13&#45;&gt;12 -->
<g id="edge65" class="edge">
<title>13&#45;&gt;12</title>
<path fill="none" stroke="black" d="M468.64,-18C468.64,-18 665.87,-18 665.87,-18"/>
<polygon fill="black" stroke="black" points="468.64,-14.5 458.64,-18 468.64,-21.5 468.64,-14.5"/>
</g>
<!-- 19 -->
<g id="node20" class="node">
<title>19</title>
<text text-anchor="middle" x="386" y="-287.3" font-family="Times,serif" font-size="14.00">preexisting type pgx::datum::array::Array&lt;alloc::string::String&gt;</text>
</g>
<!-- 19&#45;&gt;18 -->
<g id="edge29" class="edge">
<title>19&#45;&gt;18</title>
<path fill="none" stroke="black" d="M617.26,-287.75C617.26,-287.75 691.85,-287.75 691.85,-287.75"/>
<polygon fill="black" stroke="black" points="691.85,-291.25 701.85,-287.75 691.85,-284.25 691.85,-291.25"/>
</g>
<!-- 20 -->
<g id="node21" class="node">
<title>20</title>
<text text-anchor="middle" x="386" y="-254.3" font-family="Times,serif" font-size="14.00">preexisting type pgx::datum::array::Array&lt;i32&gt;</text>
</g>
<!-- 20&#45;&gt;18 -->
<g id="edge30" class="edge">
<title>20&#45;&gt;18</title>
<path fill="none" stroke="black" d="M559.23,-260.75C559.23,-260.75 691.62,-260.75 691.62,-260.75"/>
<polygon fill="black" stroke="black" points="691.62,-264.25 701.62,-260.75 691.62,-257.25 691.62,-264.25"/>
</g>
<!-- 23 -->
<g id="node24" class="node">
<title>23</title>
<text text-anchor="middle" x="386" y="-797.3" font-family="Times,serif" font-size="14.00">preexisting type core::option::Option&lt;alloc::string::String&gt;</text>
</g>
<!-- 23&#45;&gt;22 -->
<g id="edge34" class="edge">
<title>23&#45;&gt;22</title>
<path fill="none" stroke="black" d="M583,-818.81C583,-818.81 583,-820.2 583,-820.2 583,-820.2 638.88,-820.2 700.21,-820.2"/>
<polygon fill="black" stroke="black" points="586.5,-818.81 583,-808.81 579.5,-818.81 586.5,-818.81"/>
</g>
<!-- 27 -->
<g id="node28" class="node">
<title>27</title>
<text text-anchor="middle" x="386" y="-725.3" font-family="Times,serif" font-size="14.00">preexisting type i64</text>
</g>
<!-- 27&#45;&gt;26 -->
<g id="edge43" class="edge">
<title>27&#45;&gt;26</title>
<path fill="none" stroke="black" d="M386,-746.66C386,-746.66 386,-756 386,-756 386,-756 561.09,-756 697.87,-756"/>
<polygon fill="black" stroke="black" points="389.5,-746.66 386,-736.66 382.5,-746.66 389.5,-746.66"/>
</g>
</g>
</svg>
