<?xml version="1.0" encoding="UTF-8" standalone="no"?>
<!DOCTYPE svg PUBLIC "-//W3C//DTD SVG 1.1//EN"
 "http://www.w3.org/Graphics/SVG/1.1/DTD/svg11.dtd">
<!-- Generated by graphviz version 2.43.0 (0)
 -->
<!-- Title: %3 Pages: 1 -->
<svg width="1400pt" height="566pt"
 viewBox="0.00 0.00 1399.85 566.00" xmlns="http://www.w3.org/2000/svg" xmlns:xlink="http://www.w3.org/1999/xlink">
<g id="graph0" class="graph" transform="scale(1 1) rotate(0) translate(4 562)">
<title>%3</title>
<polygon fill="white" stroke="transparent" points="-4,4 -4,-562 1395.85,-562 1395.85,4 -4,4"/>
<!-- 0 -->
<g id="node1" class="node">
<title>0</title>
<path fill="none" stroke="black" d="M119,-385.73C119,-387.53 92.33,-389 59.5,-389 26.67,-389 0,-387.53 0,-385.73 0,-385.73 0,-356.27 0,-356.27 0,-354.47 26.67,-353 59.5,-353 92.33,-353 119,-354.47 119,-356.27 119,-356.27 119,-385.73 119,-385.73"/>
<path fill="none" stroke="black" d="M119,-385.73C119,-383.92 92.33,-382.45 59.5,-382.45 26.67,-382.45 0,-383.92 0,-385.73"/>
<text text-anchor="middle" x="59.5" y="-367.3" font-family="Times,serif" font-size="14.00">extension root</text>
</g>
<!-- 1 -->
<g id="node2" class="node">
<title>1</title>
<polygon fill="none" stroke="black" points="536.54,-468 417.54,-468 417.54,-444 536.54,-444 536.54,-468"/>
<polyline fill="none" stroke="black" points="420.54,-457.5 423.54,-454.5 "/>
<polyline fill="none" stroke="black" points="420.54,-454.5 423.54,-457.5 "/>
<polyline fill="none" stroke="black" points="420.54,-447 533.54,-447 "/>
<text text-anchor="middle" x="477.04" y="-452.3" font-family="Times,serif" font-size="14.00">sql single_raw</text>
</g>
<!-- 0&#45;&gt;1 -->
<g id="edge9" class="edge">
<title>0&#45;&gt;1</title>
<path fill="none" stroke="gray" d="M59.85,-389.03C59.85,-413.98 59.85,-456 59.85,-456 59.85,-456 407.26,-456 407.26,-456"/>
<polygon fill="gray" stroke="gray" points="407.26,-459.5 417.26,-456 407.26,-452.5 407.26,-459.5"/>
</g>
<!-- 2 -->
<g id="node3" class="node">
<title>2</title>
<polygon fill="none" stroke="black" points="843.46,-552 758.46,-552 758.46,-528 843.46,-528 843.46,-552"/>
<polyline fill="none" stroke="black" points="761.46,-541.5 764.46,-538.5 "/>
<polyline fill="none" stroke="black" points="761.46,-538.5 764.46,-541.5 "/>
<polyline fill="none" stroke="black" points="761.46,-531 840.46,-531 "/>
<text text-anchor="middle" x="800.96" y="-536.3" font-family="Times,serif" font-size="14.00">sql single</text>
</g>
<!-- 0&#45;&gt;2 -->
<g id="edge14" class="edge">
<title>0&#45;&gt;2</title>
<path fill="none" stroke="gray" d="M119.2,-375.5C294.07,-375.5 792.85,-375.5 792.85,-375.5 792.85,-375.5 792.85,-511.77 792.85,-511.77"/>
<polygon fill="gray" stroke="gray" points="789.35,-511.77 792.85,-521.77 796.35,-511.77 789.35,-511.77"/>
</g>
<!-- 3 -->
<g id="node4" class="node">
<title>3</title>
<polygon fill="none" stroke="black" points="300,-263 155,-263 155,-239 300,-239 300,-263"/>
<polyline fill="none" stroke="black" points="158,-252.5 161,-249.5 "/>
<polyline fill="none" stroke="black" points="158,-249.5 161,-252.5 "/>
<polyline fill="none" stroke="black" points="158,-242 297,-242 "/>
<text text-anchor="middle" x="227.5" y="-247.3" font-family="Times,serif" font-size="14.00">sql bootstrap_raw</text>
</g>
<!-- 0&#45;&gt;3 -->
<g id="edge1" class="edge">
<title>0&#45;&gt;3</title>
<path fill="none" stroke="gray" d="M71.85,-352.77C71.85,-319.2 71.85,-251 71.85,-251 71.85,-251 144.69,-251 144.69,-251"/>
<polygon fill="gray" stroke="gray" points="144.69,-254.5 154.69,-251 144.69,-247.5 144.69,-254.5"/>
</g>
<!-- 4 -->
<g id="node5" class="node">
<title>4</title>
<polygon fill="none" stroke="black" points="1118.85,-476 983.85,-476 983.85,-452 1118.85,-452 1118.85,-476"/>
<polyline fill="none" stroke="black" points="986.85,-465.5 989.85,-462.5 "/>
<polyline fill="none" stroke="black" points="986.85,-462.5 989.85,-465.5 "/>
<polyline fill="none" stroke="black" points="986.85,-455 1115.85,-455 "/>
<text text-anchor="middle" x="1051.35" y="-460.3" font-family="Times,serif" font-size="14.00">sql multiple_raw</text>
</g>
<!-- 0&#45;&gt;4 -->
<g id="edge3" class="edge">
<title>0&#45;&gt;4</title>
<path fill="none" stroke="gray" d="M119.04,-371.75C329.94,-371.75 1028.85,-371.75 1028.85,-371.75 1028.85,-371.75 1028.85,-435.77 1028.85,-435.77"/>
<polygon fill="gray" stroke="gray" points="1025.35,-435.77 1028.85,-445.77 1032.35,-435.77 1025.35,-435.77"/>
</g>
<!-- 5 -->
<g id="node6" class="node">
<title>5</title>
<polygon fill="none" stroke="black" points="1391.85,-316 1291.85,-316 1291.85,-292 1391.85,-292 1391.85,-316"/>
<polyline fill="none" stroke="black" points="1294.85,-305.5 1297.85,-302.5 "/>
<polyline fill="none" stroke="black" points="1294.85,-302.5 1297.85,-305.5 "/>
<polyline fill="none" stroke="black" points="1294.85,-295 1388.85,-295 "/>
<text text-anchor="middle" x="1341.85" y="-300.3" font-family="Times,serif" font-size="14.00">sql finalizer</text>
</g>
<!-- 0&#45;&gt;5 -->
<g id="edge12" class="edge">
<title>0&#45;&gt;5</title>
<path fill="none" stroke="gray" d="M95.85,-352.97C95.85,-332.23 95.85,-301 95.85,-301 95.85,-301 1281.85,-301 1281.85,-301"/>
<polygon fill="gray" stroke="gray" points="1281.85,-304.5 1291.85,-301 1281.85,-297.5 1281.85,-304.5"/>
</g>
<!-- 6 -->
<g id="node7" class="node">
<title>6</title>
<polygon fill="none" stroke="black" points="1255.85,-377 1154.85,-377 1154.85,-353 1255.85,-353 1255.85,-377"/>
<polyline fill="none" stroke="black" points="1157.85,-366.5 1160.85,-363.5 "/>
<polyline fill="none" stroke="black" points="1157.85,-363.5 1160.85,-366.5 "/>
<polyline fill="none" stroke="black" points="1157.85,-356 1252.85,-356 "/>
<text text-anchor="middle" x="1205.35" y="-361.3" font-family="Times,serif" font-size="14.00">sql multiple</text>
</g>
<!-- 0&#45;&gt;6 -->
<g id="edge6" class="edge">
<title>0&#45;&gt;6</title>
<path fill="none" stroke="gray" d="M119.09,-368C119.09,-368 1144.53,-368 1144.53,-368"/>
<polygon fill="gray" stroke="gray" points="1144.53,-371.5 1154.53,-368 1144.53,-364.5 1144.53,-371.5"/>
</g>
<!-- 7 -->
<g id="node8" class="node">
<title>7</title>
<ellipse fill="#c9a7c8" stroke="black" stroke-width="0" cx="800.96" cy="-334" rx="146.77" ry="18"/>
<text text-anchor="middle" x="800.96" y="-330.3" font-family="Times,serif" font-size="14.00">enum custom_sql::home::Dog</text>
</g>
<!-- 0&#45;&gt;7 -->
<g id="edge17" class="edge">
<title>0&#45;&gt;7</title>
<path fill="none" stroke="gray" d="M119.24,-364.25C279.5,-364.25 706.85,-364.25 706.85,-364.25 706.85,-364.25 706.85,-358.06 706.85,-358.06"/>
<polygon fill="gray" stroke="gray" points="710.35,-358.06 706.85,-348.06 703.35,-358.06 710.35,-358.06"/>
</g>
<!-- 8 -->
<g id="node9" class="node">
<title>8</title>
<ellipse fill="#ae9bbd" stroke="black" stroke-width="0" cx="477.04" cy="-149" rx="141.07" ry="18"/>
<text text-anchor="middle" x="477.04" y="-145.3" font-family="Times,serif" font-size="14.00">type custom_sql::home::Ball</text>
</g>
<!-- 0&#45;&gt;8 -->
<g id="edge20" class="edge">
<title>0&#45;&gt;8</title>
<path fill="none" stroke="gray" d="M119.12,-360.5C214.52,-360.5 390.85,-360.5 390.85,-360.5 390.85,-360.5 390.85,-173.54 390.85,-173.54"/>
<polygon fill="gray" stroke="gray" points="394.35,-173.54 390.85,-163.54 387.35,-173.54 394.35,-173.54"/>
</g>
<!-- 9 -->
<g id="node10" class="node">
<title>9</title>
<polygon fill="#adc7c6" stroke="black" stroke-width="0" points="909.96,-90 691.96,-90 691.96,-54 909.96,-54 909.96,-90"/>
<text text-anchor="middle" x="800.96" y="-68.3" font-family="Times,serif" font-size="14.00">fn custom_sql::home::ball_in</text>
</g>
<!-- 0&#45;&gt;9 -->
<g id="edge23" class="edge">
<title>0&#45;&gt;9</title>
<path fill="none" stroke="gray" d="M47.85,-352.98C47.85,-287.83 47.85,-68.4 47.85,-68.4 47.85,-68.4 681.86,-68.4 681.86,-68.4"/>
<polygon fill="gray" stroke="gray" points="681.86,-71.9 691.86,-68.4 681.86,-64.9 681.86,-71.9"/>
</g>
<!-- 11 -->
<g id="node12" class="node">
<title>11</title>
<polygon fill="#adc7c6" stroke="black" stroke-width="0" points="914.96,-36 686.96,-36 686.96,0 914.96,0 914.96,-36"/>
<text text-anchor="middle" x="800.96" y="-14.3" font-family="Times,serif" font-size="14.00">fn custom_sql::home::ball_out</text>
</g>
<!-- 0&#45;&gt;11 -->
<g id="edge26" class="edge">
<title>0&#45;&gt;11</title>
<path fill="none" stroke="gray" d="M23.85,-352.96C23.85,-279.54 23.85,-7.17 23.85,-7.17 23.85,-7.17 676.71,-7.17 676.71,-7.17"/>
<polygon fill="gray" stroke="gray" points="676.71,-10.67 686.71,-7.17 676.71,-3.67 676.71,-10.67"/>
</g>
<!-- 1&#45;&gt;2 -->
<g id="edge38" class="edge">
<title>1&#45;&gt;2</title>
<path fill="none" stroke="gray" d="M536.79,-468.4C623.99,-468.4 775.85,-468.4 775.85,-468.4 775.85,-468.4 775.85,-511.93 775.85,-511.93"/>
<polygon fill="gray" stroke="gray" points="772.35,-511.93 775.85,-521.93 779.35,-511.93 772.35,-511.93"/>
</g>
<!-- 1&#45;&gt;4 -->
<g id="edge31" class="edge">
<title>1&#45;&gt;4</title>
<path fill="none" stroke="gray" d="M536.6,-462.8C536.6,-462.8 973.62,-462.8 973.62,-462.8"/>
<polygon fill="gray" stroke="gray" points="973.62,-466.3 983.62,-462.8 973.62,-459.3 973.62,-466.3"/>
</g>
<!-- 1&#45;&gt;5 -->
<g id="edge11" class="edge">
<title>1&#45;&gt;5</title>
<path fill="none" stroke="gray" d="M536.81,-443.33C731.02,-443.33 1331.85,-443.33 1331.85,-443.33 1331.85,-443.33 1331.85,-332.22 1331.85,-332.22"/>
<polygon fill="gray" stroke="gray" points="1335.35,-332.22 1331.85,-322.22 1328.35,-332.22 1335.35,-332.22"/>
</g>
<!-- 1&#45;&gt;6 -->
<g id="edge35" class="edge">
<title>1&#45;&gt;6</title>
<path fill="none" stroke="gray" d="M536.81,-440.67C708.15,-440.67 1188.85,-440.67 1188.85,-440.67 1188.85,-440.67 1188.85,-393.32 1188.85,-393.32"/>
<polygon fill="gray" stroke="gray" points="1192.35,-393.32 1188.85,-383.32 1185.35,-393.32 1192.35,-393.32"/>
</g>
<!-- 2&#45;&gt;4 -->
<g id="edge32" class="edge">
<title>2&#45;&gt;4</title>
<path fill="none" stroke="gray" d="M826.85,-521.73C826.85,-503.44 826.85,-478 826.85,-478 826.85,-478 973.69,-478 973.69,-478"/>
<polygon fill="gray" stroke="gray" points="973.69,-481.5 983.69,-478 973.69,-474.5 973.69,-481.5"/>
</g>
<!-- 2&#45;&gt;5 -->
<g id="edge16" class="edge">
<title>2&#45;&gt;5</title>
<path fill="none" stroke="gray" d="M843.48,-540C976.02,-540 1372.85,-540 1372.85,-540 1372.85,-540 1372.85,-332.13 1372.85,-332.13"/>
<polygon fill="gray" stroke="gray" points="1376.35,-332.13 1372.85,-322.13 1369.35,-332.13 1376.35,-332.13"/>
</g>
<!-- 2&#45;&gt;6 -->
<g id="edge36" class="edge">
<title>2&#45;&gt;6</title>
<path fill="none" stroke="gray" d="M809.85,-521.87C809.85,-479.83 809.85,-379.25 809.85,-379.25 809.85,-379.25 1144.45,-379.25 1144.45,-379.25"/>
<polygon fill="gray" stroke="gray" points="1144.45,-382.75 1154.45,-379.25 1144.45,-375.75 1144.45,-382.75"/>
</g>
<!-- 3&#45;&gt;1 -->
<g id="edge10" class="edge">
<title>3&#45;&gt;1</title>
<path fill="none" stroke="gray" d="M300.25,-264.5C374.16,-264.5 477.85,-264.5 477.85,-264.5 477.85,-264.5 477.85,-427.98 477.85,-427.98"/>
<polygon fill="gray" stroke="gray" points="474.35,-427.98 477.85,-437.98 481.35,-427.98 474.35,-427.98"/>
</g>
<!-- 3&#45;&gt;2 -->
<g id="edge15" class="edge">
<title>3&#45;&gt;2</title>
<path fill="none" stroke="gray" d="M227.85,-269.08C227.85,-332.35 227.85,-540 227.85,-540 227.85,-540 748.35,-540 748.35,-540"/>
<polygon fill="gray" stroke="gray" points="748.35,-543.5 758.35,-540 748.35,-536.5 748.35,-543.5"/>
</g>
<!-- 3&#45;&gt;4 -->
<g id="edge4" class="edge">
<title>3&#45;&gt;4</title>
<path fill="none" stroke="gray" d="M300.03,-255.5C505.01,-255.5 1073.85,-255.5 1073.85,-255.5 1073.85,-255.5 1073.85,-435.86 1073.85,-435.86"/>
<polygon fill="gray" stroke="gray" points="1070.35,-435.86 1073.85,-445.86 1077.35,-435.86 1070.35,-435.86"/>
</g>
<!-- 3&#45;&gt;5 -->
<g id="edge2" class="edge">
<title>3&#45;&gt;5</title>
<path fill="none" stroke="gray" d="M300.33,-246.5C543.46,-246.5 1311.85,-246.5 1311.85,-246.5 1311.85,-246.5 1311.85,-275.81 1311.85,-275.81"/>
<polygon fill="gray" stroke="gray" points="1308.35,-275.81 1311.85,-285.81 1315.35,-275.81 1308.35,-275.81"/>
</g>
<!-- 3&#45;&gt;5 -->
<g id="edge13" class="edge">
<title>3&#45;&gt;5</title>
<path fill="none" stroke="gray" d="M300.39,-242C546.56,-242 1331.85,-242 1331.85,-242 1331.85,-242 1331.85,-275.73 1331.85,-275.73"/>
<polygon fill="gray" stroke="gray" points="1328.35,-275.73 1331.85,-285.73 1335.35,-275.73 1328.35,-275.73"/>
</g>
<!-- 3&#45;&gt;6 -->
<g id="edge7" class="edge">
<title>3&#45;&gt;6</title>
<path fill="none" stroke="gray" d="M300.15,-251C524.11,-251 1188.85,-251 1188.85,-251 1188.85,-251 1188.85,-336.94 1188.85,-336.94"/>
<polygon fill="gray" stroke="gray" points="1185.35,-336.94 1188.85,-346.94 1192.35,-336.94 1185.35,-336.94"/>
</g>
<!-- 3&#45;&gt;7 -->
<g id="edge18" class="edge">
<title>3&#45;&gt;7</title>
<path fill="none" stroke="gray" d="M300.21,-260C425.99,-260 670.85,-260 670.85,-260 670.85,-260 670.85,-315.51 670.85,-315.51"/>
<polygon fill="gray" stroke="gray" points="667.35,-315.51 670.85,-325.51 674.35,-315.51 667.35,-315.51"/>
</g>
<!-- 3&#45;&gt;8 -->
<g id="edge21" class="edge">
<title>3&#45;&gt;8</title>
<path fill="none" stroke="gray" d="M300.07,-237.5C332.63,-237.5 363.85,-237.5 363.85,-237.5 363.85,-237.5 363.85,-169.85 363.85,-169.85"/>
<polygon fill="gray" stroke="gray" points="367.35,-169.85 363.85,-159.85 360.35,-169.85 367.35,-169.85"/>
</g>
<!-- 3&#45;&gt;9 -->
<g id="edge24" class="edge">
<title>3&#45;&gt;9</title>
<path fill="none" stroke="gray" d="M251.85,-232.89C251.85,-188.08 251.85,-75.6 251.85,-75.6 251.85,-75.6 681.82,-75.6 681.82,-75.6"/>
<polygon fill="gray" stroke="gray" points="681.82,-79.1 691.82,-75.6 681.82,-72.1 681.82,-79.1"/>
</g>
<!-- 3&#45;&gt;11 -->
<g id="edge27" class="edge">
<title>3&#45;&gt;11</title>
<path fill="none" stroke="gray" d="M203.85,-232.82C203.85,-177.4 203.85,-14.33 203.85,-14.33 203.85,-14.33 676.89,-14.33 676.89,-14.33"/>
<polygon fill="gray" stroke="gray" points="676.89,-17.83 686.89,-14.33 676.89,-10.83 676.89,-17.83"/>
</g>
<!-- 4&#45;&gt;5 -->
<g id="edge5" class="edge">
<title>4&#45;&gt;5</title>
<path fill="none" stroke="gray" d="M1119.16,-470C1207.79,-470 1351.85,-470 1351.85,-470 1351.85,-470 1351.85,-332.08 1351.85,-332.08"/>
<polygon fill="gray" stroke="gray" points="1355.35,-332.08 1351.85,-322.08 1348.35,-332.08 1355.35,-332.08"/>
</g>
<!-- 4&#45;&gt;6 -->
<g id="edge37" class="edge">
<title>4&#45;&gt;6</title>
<path fill="none" stroke="gray" d="M1119.13,-458C1167.07,-458 1222.85,-458 1222.85,-458 1222.85,-458 1222.85,-393.37 1222.85,-393.37"/>
<polygon fill="gray" stroke="gray" points="1226.35,-393.37 1222.85,-383.37 1219.35,-393.37 1226.35,-393.37"/>
</g>
<!-- 6&#45;&gt;5 -->
<g id="edge8" class="edge">
<title>6&#45;&gt;5</title>
<path fill="none" stroke="gray" d="M1256.1,-365C1283.53,-365 1311.85,-365 1311.85,-365 1311.85,-365 1311.85,-332.3 1311.85,-332.3"/>
<polygon fill="gray" stroke="gray" points="1315.35,-332.3 1311.85,-322.3 1308.35,-332.3 1315.35,-332.3"/>
</g>
<!-- 7&#45;&gt;4 -->
<g id="edge29" class="edge">
<title>7&#45;&gt;4</title>
<path fill="none" stroke="gray" d="M895.85,-347.95C895.85,-379.1 895.85,-451.6 895.85,-451.6 895.85,-451.6 973.6,-451.6 973.6,-451.6"/>
<polygon fill="gray" stroke="gray" points="973.6,-455.1 983.6,-451.6 973.6,-448.1 973.6,-455.1"/>
</g>
<!-- 7&#45;&gt;5 -->
<g id="edge19" class="edge">
<title>7&#45;&gt;5</title>
<path fill="none" stroke="gray" d="M931.85,-325.65C931.85,-318.21 931.85,-308.5 931.85,-308.5 931.85,-308.5 1281.57,-308.5 1281.57,-308.5"/>
<polygon fill="gray" stroke="gray" points="1281.57,-312 1291.57,-308.5 1281.57,-305 1281.57,-312"/>
</g>
<!-- 7&#45;&gt;6 -->
<g id="edge33" class="edge">
<title>7&#45;&gt;6</title>
<path fill="none" stroke="gray" d="M947.93,-334.5C1069.68,-334.5 1222.85,-334.5 1222.85,-334.5 1222.85,-334.5 1222.85,-336.91 1222.85,-336.91"/>
<polygon fill="gray" stroke="gray" points="1219.35,-336.91 1222.85,-346.91 1226.35,-336.91 1219.35,-336.91"/>
</g>
<!-- 8&#45;&gt;4 -->
<g id="edge30" class="edge">
<title>8&#45;&gt;4</title>
<path fill="none" stroke="gray" d="M557.85,-163.87C557.85,-225.43 557.85,-457.2 557.85,-457.2 557.85,-457.2 973.76,-457.2 973.76,-457.2"/>
<polygon fill="gray" stroke="gray" points="973.76,-460.7 983.76,-457.2 973.76,-453.7 973.76,-460.7"/>
</g>
<!-- 8&#45;&gt;5 -->
<g id="edge22" class="edge">
<title>8&#45;&gt;5</title>
<path fill="none" stroke="gray" d="M597.85,-158.48C597.85,-190.63 597.85,-293.5 597.85,-293.5 597.85,-293.5 1281.59,-293.5 1281.59,-293.5"/>
<polygon fill="gray" stroke="gray" points="1281.59,-297 1291.59,-293.5 1281.59,-290 1281.59,-297"/>
</g>
<!-- 8&#45;&gt;6 -->
<g id="edge34" class="edge">
<title>8&#45;&gt;6</title>
<path fill="none" stroke="gray" d="M577.85,-161.68C577.85,-206.79 577.85,-356.75 577.85,-356.75 577.85,-356.75 1144.79,-356.75 1144.79,-356.75"/>
<polygon fill="gray" stroke="gray" points="1144.79,-360.25 1154.79,-356.75 1144.79,-353.25 1144.79,-360.25"/>
</g>
<!-- 8&#45;&gt;9 -->
<g id="edge40" class="edge">
<title>8&#45;&gt;9</title>
<path fill="none" stroke="black" d="M615.85,-135.81C615.85,-135.81 615.85,-82.8 615.85,-82.8 615.85,-82.8 651.76,-82.8 691.94,-82.8"/>
<polygon fill="black" stroke="black" points="612.35,-135.81 615.85,-145.81 619.35,-135.81 612.35,-135.81"/>
</g>
<!-- 8&#45;&gt;11 -->
<g id="edge41" class="edge">
<title>8&#45;&gt;11</title>
<path fill="none" stroke="black" d="M612.85,-143.94C612.85,-121.38 612.85,-31.17 612.85,-31.17 612.85,-31.17 676.93,-31.17 676.93,-31.17"/>
<polygon fill="black" stroke="black" points="676.93,-34.67 686.93,-31.17 676.93,-27.67 676.93,-34.67"/>
</g>
<!-- 9&#45;&gt;5 -->
<g id="edge25" class="edge">
<title>9&#45;&gt;5</title>
<path fill="none" stroke="gray" d="M910.13,-72C1070.73,-72 1351.85,-72 1351.85,-72 1351.85,-72 1351.85,-275.8 1351.85,-275.8"/>
<polygon fill="gray" stroke="gray" points="1348.35,-275.8 1351.85,-285.8 1355.35,-275.8 1348.35,-275.8"/>
</g>
<!-- 10 -->
<g id="node11" class="node">
<title>10</title>
<text text-anchor="middle" x="477.04" y="-25.3" font-family="Times,serif" font-size="14.00">preexisting type &amp;std::ffi::c_str::CStr</text>
</g>
<!-- 10&#45;&gt;9 -->
<g id="edge39" class="edge">
<title>10&#45;&gt;9</title>
<path fill="none" stroke="black" d="M477.85,-36.79C477.85,-46.32 477.85,-61.2 477.85,-61.2 477.85,-61.2 681.57,-61.2 681.57,-61.2"/>
<polygon fill="black" stroke="black" points="681.57,-64.7 691.57,-61.2 681.57,-57.7 681.57,-64.7"/>
</g>
<!-- 10&#45;&gt;11 -->
<g id="edge42" class="edge">
<title>10&#45;&gt;11</title>
<path fill="none" stroke="black" d="M620.19,-26.33C620.19,-26.33 686.94,-26.33 686.94,-26.33"/>
<polygon fill="black" stroke="black" points="620.19,-22.83 610.19,-26.33 620.19,-29.83 620.19,-22.83"/>
</g>
<!-- 11&#45;&gt;5 -->
<g id="edge28" class="edge">
<title>11&#45;&gt;5</title>
<path fill="none" stroke="gray" d="M914.97,-18C1081.81,-18 1372.85,-18 1372.85,-18 1372.85,-18 1372.85,-275.67 1372.85,-275.67"/>
<polygon fill="gray" stroke="gray" points="1369.35,-275.67 1372.85,-285.67 1376.35,-275.67 1369.35,-275.67"/>
</g>
</g>
</svg>
