<?xml version="1.0" encoding="UTF-8" standalone="no"?>
<!DOCTYPE svg PUBLIC "-//W3C//DTD SVG 1.1//EN"
 "http://www.w3.org/Graphics/SVG/1.1/DTD/svg11.dtd">
<!-- Generated by graphviz version 2.43.0 (0)
 -->
<!-- Title: %3 Pages: 1 -->
<svg width="1382pt" height="116pt"
 viewBox="0.00 0.00 1381.50 116.00" xmlns="http://www.w3.org/2000/svg" xmlns:xlink="http://www.w3.org/1999/xlink">
<g id="graph0" class="graph" transform="scale(1 1) rotate(0) translate(4 112)">
<title>%3</title>
<polygon fill="white" stroke="transparent" points="-4,4 -4,-112 1377.5,-112 1377.5,4 -4,4"/>
<!-- 0 -->
<g id="node1" class="node">
<title>0</title>
<path fill="none" stroke="black" d="M580,-104.73C580,-106.53 553.33,-108 520.5,-108 487.67,-108 461,-106.53 461,-104.73 461,-104.73 461,-75.27 461,-75.27 461,-73.47 487.67,-72 520.5,-72 553.33,-72 580,-73.47 580,-75.27 580,-75.27 580,-104.73 580,-104.73"/>
<path fill="none" stroke="black" d="M580,-104.73C580,-102.92 553.33,-101.45 520.5,-101.45 487.67,-101.45 461,-102.92 461,-104.73"/>
<text text-anchor="middle" x="520.5" y="-86.3" font-family="Times,serif" font-size="14.00">extension root</text>
</g>
<!-- 1 -->
<g id="node2" class="node">
<title>1</title>
<polygon fill="#adc7c6" stroke="black" stroke-width="0" points="614,-36 427,-36 427,0 614,0 614,-36"/>
<text text-anchor="middle" x="520.5" y="-14.3" font-family="Times,serif" font-size="14.00">fn strings::return_static</text>
</g>
<!-- 0&#45;&gt;1 -->
<g id="edge1" class="edge">
<title>0&#45;&gt;1</title>
<path fill="none" stroke="gray" d="M520.5,-71.7C520.5,-63.98 520.5,-54.71 520.5,-46.11"/>
<polygon fill="gray" stroke="gray" points="524,-46.1 520.5,-36.1 517,-46.1 524,-46.1"/>
</g>
<!-- 3 -->
<g id="node4" class="node">
<title>3</title>
<polygon fill="#adc7c6" stroke="black" stroke-width="0" points="409,-36 222,-36 222,0 409,0 409,-36"/>
<text text-anchor="middle" x="315.5" y="-14.3" font-family="Times,serif" font-size="14.00">fn strings::to_lowercase</text>
</g>
<!-- 0&#45;&gt;3 -->
<g id="edge2" class="edge">
<title>0&#45;&gt;3</title>
<path fill="none" stroke="gray" d="M472.95,-72.76C443.82,-62.82 406.27,-49.99 375.15,-39.37"/>
<polygon fill="gray" stroke="gray" points="375.88,-35.92 365.29,-36 373.62,-42.54 375.88,-35.92"/>
</g>
<!-- 5 -->
<g id="node6" class="node">
<title>5</title>
<polygon fill="#adc7c6" stroke="black" stroke-width="0" points="795,-36 632,-36 632,0 795,0 795,-36"/>
<text text-anchor="middle" x="713.5" y="-14.3" font-family="Times,serif" font-size="14.00">fn strings::substring</text>
</g>
<!-- 0&#45;&gt;5 -->
<g id="edge3" class="edge">
<title>0&#45;&gt;5</title>
<path fill="none" stroke="gray" d="M565.75,-72.59C592.98,-62.71 627.87,-50.06 656.91,-39.52"/>
<polygon fill="gray" stroke="gray" points="658.31,-42.74 666.52,-36.04 655.92,-36.16 658.31,-42.74"/>
</g>
<!-- 7 -->
<g id="node8" class="node">
<title>7</title>
<polygon fill="#adc7c6" stroke="black" stroke-width="0" points="204,-36 57,-36 57,0 204,0 204,-36"/>
<text text-anchor="middle" x="130.5" y="-14.3" font-family="Times,serif" font-size="14.00">fn strings::append</text>
</g>
<!-- 0&#45;&gt;7 -->
<g id="edge4" class="edge">
<title>0&#45;&gt;7</title>
<path fill="none" stroke="gray" d="M460.77,-79.34C400.82,-69.51 305.58,-53.5 214.2,-36.29"/>
<polygon fill="gray" stroke="gray" points="214.71,-32.83 204.23,-34.41 213.41,-39.71 214.71,-32.83"/>
</g>
<!-- 8 -->
<g id="node9" class="node">
<title>8</title>
<polygon fill="#adc7c6" stroke="black" stroke-width="0" points="939.5,-36 813.5,-36 813.5,0 939.5,0 939.5,-36"/>
<text text-anchor="middle" x="876.5" y="-14.3" font-family="Times,serif" font-size="14.00">fn strings::split</text>
</g>
<!-- 0&#45;&gt;8 -->
<g id="edge5" class="edge">
<title>0&#45;&gt;8</title>
<path fill="none" stroke="gray" d="M580.14,-73.81C582.96,-73.18 585.76,-72.57 588.5,-72 680.29,-52.87 706.8,-54.84 803.36,-35.95"/>
<polygon fill="gray" stroke="gray" points="804.12,-39.36 813.24,-33.99 802.76,-32.5 804.12,-39.36"/>
</g>
<!-- 10 -->
<g id="node11" class="node">
<title>10</title>
<polygon fill="#adc7c6" stroke="black" stroke-width="0" points="1113,-36 958,-36 958,0 1113,0 1113,-36"/>
<text text-anchor="middle" x="1035.5" y="-14.3" font-family="Times,serif" font-size="14.00">fn strings::split_set</text>
</g>
<!-- 0&#45;&gt;10 -->
<g id="edge6" class="edge">
<title>0&#45;&gt;10</title>
<path fill="none" stroke="gray" d="M580.1,-73.58C582.93,-73.01 585.74,-72.48 588.5,-72 743.67,-44.99 787.63,-58.85 947.57,-36.04"/>
<polygon fill="gray" stroke="gray" points="948.38,-39.46 957.77,-34.56 947.37,-32.53 948.38,-39.46"/>
</g>
<!-- 2 -->
<g id="node3" class="node">
<title>2</title>
<text text-anchor="middle" x="838.5" y="-86.3" font-family="Times,serif" font-size="14.00">preexisting type &amp;str</text>
</g>
<!-- 2&#45;&gt;1 -->
<g id="edge20" class="edge">
<title>2&#45;&gt;1</title>
<path fill="none" stroke="black" d="M799.07,-80.32C748.96,-69.29 661.37,-50.01 597.75,-36"/>
<polygon fill="black" stroke="black" points="798.35,-83.75 808.87,-82.48 799.86,-76.91 798.35,-83.75"/>
</g>
<!-- 2&#45;&gt;3 -->
<g id="edge21" class="edge">
<title>2&#45;&gt;3</title>
<path fill="none" stroke="black" d="M808.41,-82.46C791.71,-79 770.52,-74.88 751.5,-72 607.05,-50.14 567.12,-56.01 419.04,-36.16"/>
<polygon fill="black" stroke="black" points="419.5,-32.7 409.12,-34.82 418.56,-39.63 419.5,-32.7"/>
</g>
<!-- 2&#45;&gt;5 -->
<g id="edge16" class="edge">
<title>2&#45;&gt;5</title>
<path fill="none" stroke="black" d="M822.59,-82.41C803.5,-73.08 771.45,-55.54 746.94,-41.27"/>
<polygon fill="black" stroke="black" points="748.68,-38.24 738.29,-36.19 745.13,-44.27 748.68,-38.24"/>
</g>
<!-- 2&#45;&gt;5 -->
<g id="edge19" class="edge">
<title>2&#45;&gt;5</title>
<path fill="none" stroke="black" d="M822.01,-76.82C803.65,-65.56 773.79,-48.72 749.96,-36.12"/>
<polygon fill="black" stroke="black" points="820.37,-79.92 830.69,-82.29 824.1,-74 820.37,-79.92"/>
</g>
<!-- 2&#45;&gt;7 -->
<g id="edge8" class="edge">
<title>2&#45;&gt;7</title>
<path fill="none" stroke="black" d="M810.04,-82.5C793.12,-78.87 771.19,-74.57 751.5,-72 516.69,-41.34 452.14,-67.7 214.17,-36.12"/>
<polygon fill="black" stroke="black" points="214.55,-32.64 204.17,-34.77 213.62,-39.58 214.55,-32.64"/>
</g>
<!-- 2&#45;&gt;8 -->
<g id="edge10" class="edge">
<title>2&#45;&gt;8</title>
<path fill="none" stroke="black" d="M837.96,-82.29C840.42,-73.72 847.94,-58.41 855.84,-45"/>
<polygon fill="black" stroke="black" points="859.05,-46.47 861.31,-36.12 853.09,-42.79 859.05,-46.47"/>
</g>
<!-- 2&#45;&gt;8 -->
<g id="edge11" class="edge">
<title>2&#45;&gt;8</title>
<path fill="none" stroke="black" d="M846.32,-82.29C853.1,-73.81 862.09,-58.71 868.74,-45.38"/>
<polygon fill="black" stroke="black" points="872.01,-46.65 873.1,-36.12 865.68,-43.67 872.01,-46.65"/>
</g>
<!-- 2&#45;&gt;10 -->
<g id="edge13" class="edge">
<title>2&#45;&gt;10</title>
<path fill="none" stroke="black" d="M852.89,-82.41C877.81,-72.66 929.78,-53.95 971.98,-39.37"/>
<polygon fill="black" stroke="black" points="973.33,-42.6 981.65,-36.04 971.06,-35.99 973.33,-42.6"/>
</g>
<!-- 2&#45;&gt;10 -->
<g id="edge14" class="edge">
<title>2&#45;&gt;10</title>
<path fill="none" stroke="black" d="M861.18,-82.41C891.05,-72.7 944.07,-54.1 983.87,-39.55"/>
<polygon fill="black" stroke="black" points="985.25,-42.78 993.43,-36.04 982.83,-36.2 985.25,-42.78"/>
</g>
<!-- 4 -->
<g id="node5" class="node">
<title>4</title>
<text text-anchor="middle" x="130.5" y="-86.3" font-family="Times,serif" font-size="14.00">preexisting type alloc::string::String</text>
</g>
<!-- 4&#45;&gt;3 -->
<g id="edge22" class="edge">
<title>4&#45;&gt;3</title>
<path fill="none" stroke="black" d="M157.57,-78.76C187.18,-67.55 235.15,-49.4 270.46,-36.04"/>
<polygon fill="black" stroke="black" points="156.02,-75.6 147.9,-82.41 158.5,-82.15 156.02,-75.6"/>
</g>
<!-- 4&#45;&gt;7 -->
<g id="edge7" class="edge">
<title>4&#45;&gt;7</title>
<path fill="none" stroke="black" d="M126.32,-82.29C124.19,-73.97 123.38,-59.29 123.9,-46.16"/>
<polygon fill="black" stroke="black" points="127.4,-46.33 124.6,-36.12 120.42,-45.85 127.4,-46.33"/>
</g>
<!-- 4&#45;&gt;7 -->
<g id="edge9" class="edge">
<title>4&#45;&gt;7</title>
<path fill="none" stroke="black" d="M136.34,-72.37C137.53,-61.43 137.55,-47.15 136.4,-36.12"/>
<polygon fill="black" stroke="black" points="132.88,-71.85 134.68,-82.29 139.79,-73.01 132.88,-71.85"/>
</g>
<!-- 6 -->
<g id="node7" class="node">
<title>6</title>
<text text-anchor="middle" x="670.5" y="-86.3" font-family="Times,serif" font-size="14.00">preexisting type i32</text>
</g>
<!-- 6&#45;&gt;5 -->
<g id="edge17" class="edge">
<title>6&#45;&gt;5</title>
<path fill="none" stroke="black" d="M670.44,-82.29C673.54,-73.64 682.29,-58.12 691.24,-44.61"/>
<polygon fill="black" stroke="black" points="694.3,-46.34 697.09,-36.12 688.53,-42.37 694.3,-46.34"/>
</g>
<!-- 6&#45;&gt;5 -->
<g id="edge18" class="edge">
<title>6&#45;&gt;5</title>
<path fill="none" stroke="black" d="M678.8,-82.29C686.26,-73.72 696.45,-58.41 704.08,-45"/>
<polygon fill="black" stroke="black" points="707.2,-46.58 708.88,-36.12 701.05,-43.25 707.2,-46.58"/>
</g>
<!-- 9 -->
<g id="node10" class="node">
<title>9</title>
<text text-anchor="middle" x="1073.5" y="-86.3" font-family="Times,serif" font-size="14.00">preexisting type alloc::vec::Vec&lt;&amp;str&gt;</text>
</g>
<!-- 9&#45;&gt;8 -->
<g id="edge12" class="edge">
<title>9&#45;&gt;8</title>
<path fill="none" stroke="black" d="M1045.5,-79.05C1014.03,-67.87 962.39,-49.52 924.46,-36.04"/>
<polygon fill="black" stroke="black" points="1044.37,-82.36 1054.97,-82.41 1046.72,-75.77 1044.37,-82.36"/>
</g>
<!-- 11 -->
<g id="node12" class="node">
<title>11</title>
<text text-anchor="middle" x="1302.5" y="-86.3" font-family="Times,serif" font-size="14.00">preexisting type str</text>
</g>
<!-- 11&#45;&gt;10 -->
<g id="edge15" class="edge">
<title>11&#45;&gt;10</title>
<path fill="none" stroke="black" d="M1267.55,-79.84C1225.24,-68.75 1153.13,-49.84 1100.5,-36.04"/>
<polygon fill="black" stroke="black" points="1266.82,-83.26 1277.38,-82.41 1268.6,-76.49 1266.82,-83.26"/>
</g>
</g>
</svg>
